HIERARCHY
ROOT Root
{
  OFFSET 0.0 0.0 0.0
  CHANNELS 6 Xposition Yposition Zposition Zrotation Yrotation Xrotation
  JOINT Hips
  {
    OFFSET 0.0 100.0 0.0
    CHANNELS 6 Xposition Yposition Zposition Zrotation Yrotation Xrotation
    JOINT Spine1
    {
      OFFSET -0.013727 5.003763 -0.053727
      CHANNELS 3 Zrotation Yrotation Xrotation
      JOINT Spine2
      {
        OFFSET -0.0 7.125301 -0.029825
        CHANNELS 3 Zrotation Yrotation Xrotation
        JOINT Chest
        {
          OFFSET -1e-06 7.550063 -0.815971
          CHANNELS 3 Zrotation Yrotation Xrotation
          JOINT Neck1
          {
            OFFSET -0.181677 26.311295 -0.553348
            CHANNELS 3 Zrotation Yrotation Xrotation
            JOINT Neck2
            {
              OFFSET -3e-06 7.709397 2.302585
              CHANNELS 3 Zrotation Yrotation Xrotation
              JOINT Head
              {
                OFFSET -5e-06 6.128916 1.953709
                CHANNELS 3 Zrotation Yrotation Xrotation
                JOINT HeadEnd
                {
                  OFFSET 0.003598 16.065403 -1.835379
                  CHANNELS 3 Zrotation Yrotation Xrotation
                }
                JOINT Jaw
                {
                  OFFSET 0.002637 0.475592 3.094941
                  CHANNELS 3 Zrotation Yrotation Xrotation
                }
                JOINT LeftEye
                {
                  OFFSET 3.206381 5.380205 7.586883
                  CHANNELS 3 Zrotation Yrotation Xrotation
                }
                JOINT RightEye
                {
                  OFFSET -3.22244 5.361869 7.558234
                  CHANNELS 3 Zrotation Yrotation Xrotation
                }
              }
            }
          }
          JOINT LeftShoulder
          {
            OFFSET 1.621652 23.237164 5.113413
            CHANNELS 3 Zrotation Yrotation Xrotation
            JOINT LeftArm
            {
              OFFSET 14.919846 2e-06 -5.502326
              CHANNELS 3 Zrotation Yrotation Xrotation
              JOINT LeftForeArm
              {
                OFFSET 28.739307 0.0 -0.002588
                CHANNELS 3 Zrotation Yrotation Xrotation
                JOINT LeftHand
                {
                  OFFSET 27.093981 -1e-06 0.002609
                  CHANNELS 3 Zrotation Yrotation Xrotation
                  JOINT LeftHandThumb1
                  {
                    OFFSET 2.276482 -1.392045 3.191413
                    CHANNELS 3 Zrotation Yrotation Xrotation
                    JOINT LeftHandThumb2
                    {
                      OFFSET 4.012836 -1.828127 1.641654
                      CHANNELS 3 Zrotation Yrotation Xrotation
                      JOINT LeftHandThumb3
                      {
                        OFFSET 2.798515 0.0 -3e-06
                        CHANNELS 3 Zrotation Yrotation Xrotation
                        JOINT LeftHandThumbEnd
                        {
                          OFFSET 3.180793 -4e-06 4e-06
                          CHANNELS 3 Zrotation Yrotation Xrotation
                        }
                      }
                    }
                  }
                  JOINT LeftHandIndex1
                  {
                    OFFSET 3.247555 -0.531998 2.296169
                    CHANNELS 3 Zrotation Yrotation Xrotation
                    JOINT LeftHandIndex2
                    {
                      OFFSET 6.364578 0.01206 0.1786
                      CHANNELS 3 Zrotation Yrotation Xrotation
                      JOINT LeftHandIndex3
                      {
                        OFFSET 3.662364 0.0 0.0
                        CHANNELS 3 Zrotation Yrotation Xrotation
                        JOINT LeftHandIndex4
                        {
                          OFFSET 2.329242 4e-06 4e-06
                          CHANNELS 3 Zrotation Yrotation Xrotation
                          JOINT LeftHandIndexEnd
                          {
                            OFFSET 2.759615 -0.180537 -0.113024
                            CHANNELS 3 Zrotation Yrotation Xrotation
                          }
                        }
                      }
                    }
                  }
                  JOINT LeftHandMiddle1
                  {
                    OFFSET 3.163495 0.240981 1.000332
                    CHANNELS 3 Zrotation Yrotation Xrotation
                    JOINT LeftHandMiddle2
                    {
                      OFFSET 6.19078 -0.259278 -1.002548
                      CHANNELS 3 Zrotation Yrotation Xrotation
                      JOINT LeftHandMiddle3
                      {
                        OFFSET 4.35652 -4e-06 -1e-06
                        CHANNELS 3 Zrotation Yrotation Xrotation
                        JOINT LeftHandMiddle4
                        {
                          OFFSET 2.996877 -8e-06 0.0
                          CHANNELS 3 Zrotation Yrotation Xrotation
                          JOINT LeftHandMiddleEnd
                          {
                            OFFSET 2.304287 -0.294569 -0.031741
                            CHANNELS 3 Zrotation Yrotation Xrotation
                          }
                        }
                      }
                    }
                  }
                  JOINT LeftHandRing1
                  {
                    OFFSET 2.882643 -0.053652 -0.322543
                    CHANNELS 3 Zrotation Yrotation Xrotation
                    JOINT LeftHandRing2
                    {
                      OFFSET 5.854541 -0.486202 -1.373841
                      CHANNELS 3 Zrotation Yrotation Xrotation
                      JOINT LeftHandRing3
                      {
                        OFFSET 4.350578 0.0 3e-06
                        CHANNELS 3 Zrotation Yrotation Xrotation
                        JOINT LeftHandRing4
                        {
                          OFFSET 2.651321 7e-06 2e-06
                          CHANNELS 3 Zrotation Yrotation Xrotation
                          JOINT LeftHandRingEnd
                          {
                            OFFSET 1.936105 0.077687 -7.1e-05
                            CHANNELS 3 Zrotation Yrotation Xrotation
                          }
                        }
                      }
                    }
                  }
                  JOINT LeftHandPinky1
                  {
                    OFFSET 2.8655 -0.310005 -1.600378
                    CHANNELS 3 Zrotation Yrotation Xrotation
                    JOINT LeftHandPinky2
                    {
                      OFFSET 5.087849 -1.331141 -1.77123
                      CHANNELS 3 Zrotation Yrotation Xrotation
                      JOINT LeftHandPinky3
                      {
                        OFFSET 3.070974 4e-06 0.0
                        CHANNELS 3 Zrotation Yrotation Xrotation
                        JOINT LeftHandPinky4
                        {
                          OFFSET 1.549672 0.0 1e-06
                          CHANNELS 3 Zrotation Yrotation Xrotation
                          JOINT LeftHandPinkyEnd
                          {
                            OFFSET 1.944893 -0.157802 0.057219
                            CHANNELS 3 Zrotation Yrotation Xrotation
                          }
                        }
                      }
                    }
                  }
                }
              }
            }
          }
          JOINT RightShoulder
          {
            OFFSET -1.380118 23.180309 5.214158
            CHANNELS 3 Zrotation Yrotation Xrotation
            JOINT RightArm
            {
              OFFSET -15.037196 1.2e-05 -5.545604
              CHANNELS 3 Zrotation Yrotation Xrotation
              JOINT RightForeArm
              {
                OFFSET -28.736639 2e-06 -0.002597
                CHANNELS 3 Zrotation Yrotation Xrotation
                JOINT RightHand
                {
                  OFFSET -27.133619 -0.0 0.002613
                  CHANNELS 3 Zrotation Yrotation Xrotation
                  JOINT RightHandThumb1
                  {
                    OFFSET -2.274032 -1.383988 3.163127
                    CHANNELS 3 Zrotation Yrotation Xrotation
                    JOINT RightHandThumb2
                    {
                      OFFSET -4.011429 -1.827466 1.640914
                      CHANNELS 3 Zrotation Yrotation Xrotation
                      JOINT RightHandThumb3
                      {
                        OFFSET -2.794935 -4e-06 -3e-06
                        CHANNELS 3 Zrotation Yrotation Xrotation
                        JOINT RightHandThumbEnd
                        {
                          OFFSET -3.183852 4e-06 1e-06
                          CHANNELS 3 Zrotation Yrotation Xrotation
                        }
                      }
                    }
                  }
                  JOINT RightHandIndex1
                  {
                    OFFSET -3.253266 -0.520057 2.282866
                    CHANNELS 3 Zrotation Yrotation Xrotation
                    JOINT RightHandIndex2
                    {
                      OFFSET -6.341917 0.012471 0.178266
                      CHANNELS 3 Zrotation Yrotation Xrotation
                      JOINT RightHandIndex3
                      {
                        OFFSET -3.654871 -8e-06 -0.0
                        CHANNELS 3 Zrotation Yrotation Xrotation
                        JOINT RightHandIndex4
                        {
                          OFFSET -2.327586 0.0 1e-06
                          CHANNELS 3 Zrotation Yrotation Xrotation
                          JOINT RightHandIndexEnd
                          {
                            OFFSET -2.76179 -0.180656 -0.113078
                            CHANNELS 3 Zrotation Yrotation Xrotation
                          }
                        }
                      }
                    }
                  }
                  JOINT RightHandMiddle1
                  {
                    OFFSET -3.168106 0.246593 1.00103
                    CHANNELS 3 Zrotation Yrotation Xrotation
                    JOINT RightHandMiddle2
                    {
                      OFFSET -6.180828 -0.258836 -1.000895
                      CHANNELS 3 Zrotation Yrotation Xrotation
                      JOINT RightHandMiddle3
                      {
                        OFFSET -4.348901 0.0 -0.0
                        CHANNELS 3 Zrotation Yrotation Xrotation
                        JOINT RightHandMiddle4
                        {
                          OFFSET -3.00024 -4e-06 -2e-06
                          CHANNELS 3 Zrotation Yrotation Xrotation
                          JOINT RightHandMiddleEnd
                          {
                            OFFSET -2.30252 -0.29437 -0.031706
                            CHANNELS 3 Zrotation Yrotation Xrotation
                          }
                        }
                      }
                    }
                  }
                  JOINT RightHandRing1
                  {
                    OFFSET -2.88569 -0.067952 -0.308858
                    CHANNELS 3 Zrotation Yrotation Xrotation
                    JOINT RightHandRing2
                    {
                      OFFSET -5.854198 -0.48613 -1.373731
                      CHANNELS 3 Zrotation Yrotation Xrotation
                      JOINT RightHandRing3
                      {
                        OFFSET -4.33881 -4e-06 -0.0
                        CHANNELS 3 Zrotation Yrotation Xrotation
                        JOINT RightHandRing4
                        {
                          OFFSET -2.654903 -4e-06 4e-06
                          CHANNELS 3 Zrotation Yrotation Xrotation
                          JOINT RightHandRingEnd
                          {
                            OFFSET -1.933568 0.077527 -5.2e-05
                            CHANNELS 3 Zrotation Yrotation Xrotation
                          }
                        }
                      }
                    }
                  }
                  JOINT RightHandPinky1
                  {
                    OFFSET -2.866425 -0.342796 -1.584145
                    CHANNELS 3 Zrotation Yrotation Xrotation
                    JOINT RightHandPinky2
                    {
                      OFFSET -5.091371 -1.332055 -1.772385
                      CHANNELS 3 Zrotation Yrotation Xrotation
                      JOINT RightHandPinky3
                      {
                        OFFSET -3.062664 -4e-06 1e-06
                        CHANNELS 3 Zrotation Yrotation Xrotation
                        JOINT RightHandPinky4
                        {
                          OFFSET -1.546529 4e-06 -2e-06
                          CHANNELS 3 Zrotation Yrotation Xrotation
                          JOINT RightHandPinkyEnd
                          {
                            OFFSET -1.945119 -0.157718 0.057211
                            CHANNELS 3 Zrotation Yrotation Xrotation
                          }
                        }
                      }
                    }
                  }
                }
              }
            }
          }
        }
      }
    }
    JOINT LeftLeg
    {
      OFFSET 10.043214 -8.434526 2.595655
      CHANNELS 3 Zrotation Yrotation Xrotation
      JOINT LeftShin
      {
        OFFSET -1e-06 -43.221752 -0.802913
        CHANNELS 3 Zrotation Yrotation Xrotation
        JOINT LeftFoot
        {
          OFFSET 1e-06 -42.155094 -3.481523
          CHANNELS 3 Zrotation Yrotation Xrotation
          JOINT LeftToeBase
          {
            OFFSET 0.0 -5.059472 13.231529
            CHANNELS 3 Zrotation Yrotation Xrotation
            JOINT LeftToeEnd
            {
              OFFSET -0.009607 -1.647619 6.513017
              CHANNELS 3 Zrotation Yrotation Xrotation
            }
          }
        }
      }
    }
    JOINT RightLeg
    {
      OFFSET -10.047278 -8.29526 2.620317
      CHANNELS 3 Zrotation Yrotation Xrotation
      JOINT RightShin
      {
        OFFSET 1e-06 -43.362206 -0.805556
        CHANNELS 3 Zrotation Yrotation Xrotation
        JOINT RightFoot
        {
          OFFSET 2e-06 -42.117393 -3.478398
          CHANNELS 3 Zrotation Yrotation Xrotation
          JOINT RightToeBase
          {
            OFFSET -0.0 -5.079609 13.284196
            CHANNELS 3 Zrotation Yrotation Xrotation
            JOINT RightToeEnd
            {
              OFFSET 0.009532 -1.634378 6.460591
              CHANNELS 3 Zrotation Yrotation Xrotation
            }
          }
        }
      }
    }
  }
}
MOTION
Frames: 4
Frame Time: 0.03333333333333333
0.0 0.0 0.0 0.0 -0.0 0.0 153.29892 15.679592 73.316887 40.010983 16.517443 99.404312 -8.64273 -0.786508 -2.456515 -4.330296 -2.884989 -4.530236 -17.259382 -4.20478 15.793913 10.724031 2.939642 -27.324305 -6.442058 -12.706768 -2.437797 2.807868 -19.214834 0.265165 7.6e-05 -2.2e-05 5e-06 0.177319 -0.072614 -0.328618 1.09548 -3.810368 -11.12363 -0.733615 3.662814 -10.925395 1.991421 -22.730368 13.984636 -54.856117 -66.099884 1.779247 -178.005875 -61.67281 176.594055 9.992468 -7.155956 45.75108 -5.882112 9.861295 0.702589 -10.936883 -0.360577 7.156213 1e-06 8.774835 -4e-06 -15.652651 17.387384 5.75888 -1.844034 2.498508 -2.507282 -10.163609 4.678948 4.621113 -20.976044 -6e-06 3e-06 -21.226305 2.451696 -3.594003 -0.0 -7e-06 -2e-06 -1.362682 2.240801 -0.746325 -21.334936 0.584907 3.008324 -13.821229 -4e-06 2e-06 -23.887196 -0.249082 -0.839484 -58.863819 2.881886 -1.303527 -0.294025 1.679688 0.833258 -14.218224 0.093213 1.300581 -34.212082 -0.287569 0.967174 -20.033234 0.964536 1.212846 -0.0 0.0 -1e-06 -3.440392 0.788234 0.501655 -15.928203 -3.167315 2.99971 -6.338833 -2e-06 1e-06 -18.123465 3.648185 -4.905674 -5e-06 1e-06 -0.0 -10.427601 3.370746 12.282596 81.900742 41.525642 0.974585 169.85939 38.859886 172.707001 -4.977683 -10.971144 -29.750669 2.243543 -5.255042 -3.18016 14.282899 -0.826597 6.952505 1e-06 -12.690615 -2e-06 15.091392 -17.007025 3.150799 1.665667 -1.955923 -2.878301 4.727802 -4.170592 4.993926 11.020532 1e-06 -0.0 12.109059 -3.73572 -2.866789 1e-06 -0.0 -1e-06 1.291987 -1.928552 -1.498091 14.800136 0.567466 3.865611 14.242581 -1.341741 -6.660662 19.631975 0.143922 -0.648248 52.197079 -0.395121 -5.090143 0.353029 -1.511151 -0.031941 20.222803 3.684309 2.316633 18.787287 1e-06 -0.0 10.751636 -0.47987 1.397905 0.0 0.0 0.0 3.273808 0.305946 -0.580111 21.486826 11.830381 2.266136 8.162933 1e-06 -0.0 18.399097 -3.798988 -4.940582 3e-06 0.0 -2e-06 -7.318785 29.901367 -73.565987 -4.403559 -5.036584 83.270897 11.732069 24.50215 -1.991783 1.940835 -2.165565 -2.607924 0.0 0.0 3e-06 81.814041 72.418259 91.278969 -150.161209 -80.639992 159.394867 29.745205 -7.490118 -10.90605 -1.674501 0.396488 -7.995673 0.0 0.0 -1e-06 
0.0 0.0 0.0 0.0 -0.0 0.0 154.827072 15.228039 74.896339 38.310997 17.253563 99.670586 -8.557991 -0.748664 -3.145343 -4.113704 -2.837191 -4.789791 -16.03406 -4.113007 15.29829 11.391225 2.858272 -27.089737 -6.436924 -12.431618 -2.448223 2.1322 -18.276423 0.72513 7.6e-05 -2.2e-05 5e-06 0.125143 -0.037427 -0.33122 1.057106 -3.769206 -11.093994 -0.796072 3.690753 -10.894084 1.931107 -21.085749 14.017694 -57.027641 -63.74292 2.189875 -179.044708 -58.654747 177.439316 10.288247 -8.239276 46.874363 -5.882104 9.86128 0.702589 -10.936865 -0.360574 7.156201 -1e-06 8.774821 -2e-06 -15.64395 17.683294 5.888346 -1.84403 2.498503 -2.507274 -10.163594 4.678943 4.621107 -20.976011 -2e-06 1e-06 -21.226273 2.451698 -3.593997 1e-06 -8e-06 -0.0 -1.362682 2.240797 -0.746323 -21.334904 0.584911 3.008321 -13.821206 -2e-06 1e-06 -23.887157 -0.249076 -0.839483 -59.031906 2.907395 -1.329581 -0.294025 1.679686 0.833254 -14.218199 0.093215 1.30058 -34.212032 -0.287563 0.967168 -20.033199 0.964536 1.212841 0.0 1e-06 0.0 -3.440387 0.788232 0.501654 -15.928176 -3.167307 2.999705 -6.338821 -1e-06 0.0 -18.123436 3.648181 -4.905667 -4e-06 1e-06 0.0 -8.852352 2.954957 12.691135 80.804108 38.213646 0.290452 171.298615 35.265938 174.464478 -5.074731 -9.573007 -29.129875 2.24354 -5.255034 -3.180157 14.282885 -0.826593 6.952502 -4e-06 -12.6906 -1e-06 15.138572 -17.155468 3.006154 1.665665 -1.955921 -2.8783 4.727797 -4.170586 4.993924 11.020522 4e-06 -1e-06 12.109049 -3.735713 -2.866785 -1e-06 0.0 -1e-06 1.291985 -1.928549 -1.498089 14.800122 0.56747 3.865606 14.242566 -1.341735 -6.660657 19.631962 0.143928 -0.648244 51.833973 -0.494509 -5.117021 0.353028 -1.511151 -0.031941 20.222784 3.684311 2.31663 18.787268 6e-06 2e-06 10.751623 -0.479868 1.397908 -0.0 0.0 0.0 3.273806 0.305948 -0.580109 21.486805 11.830372 2.266131 8.162924 3e-06 -0.0 18.399075 -3.798981 -4.940573 4e-06 -1e-06 0.0 -8.289866 33.600456 -73.69767 -4.989861 -5.133846 81.710953 11.544719 25.19478 0.121192 2.008372 -2.130026 -2.403949 0.0 0.0 2e-06 79.573654 73.192108 89.155769 -123.543304 -83.891251 131.02272 27.718412 -10.1957 -7.172193 -1.615348 0.382933 -8.324788 -0.0 0.0 -1e-06 
0.0 0.0 0.0 0.0 -0.0 0.0 155.905197 15.445715 76.477684 36.384171 17.630833 100.266678 -8.518744 -0.847781 -3.555319 -3.801787 -2.823266 -4.942797 -14.807644 -4.169886 14.699749 12.46509 2.95017 -27.48872 -6.322338 -11.866699 -2.475209 1.165475 -17.009449 0.601371 7.6e-05 -2.3e-05 5e-06 0.08703 -0.015155 -0.308421 1.01714 -3.751615 -11.08173 -0.833022 3.717643 -10.877311 2.493942 -19.789709 13.598337 -55.096416 -61.30444 -1.878774 -179.836899 -54.842289 178.205002 10.932559 -9.217257 46.174606 -5.88211 9.861287 0.70259 -10.936881 -0.360577 7.156209 2e-06 8.77483 -3e-06 -15.831573 18.164179 6.003081 -1.844033 2.498506 -2.507278 -10.163606 4.678945 4.621106 -20.976038 -4e-06 4e-06 -21.226299 2.451697 -3.594 1e-06 -7e-06 -1e-06 -1.362682 2.240799 -0.746324 -21.334929 0.584905 3.008325 -13.821221 -4e-06 2e-06 -23.887182 -0.24908 -0.839479 -59.076035 3.02196 -1.404343 -0.294025 1.679688 0.833257 -14.218217 0.093212 1.300578 -34.212074 -0.287568 0.967173 -20.033226 0.964535 1.212846 1e-06 0.0 1e-06 -3.44039 0.788233 0.501656 -15.928198 -3.167314 2.99971 -6.33883 -2e-06 1e-06 -18.123457 3.648181 -4.90567 -4e-06 1e-06 -0.0 -6.272514 2.023537 13.159004 79.424423 35.369984 -2.689339 174.103134 31.997066 176.492233 -10.797398 -4.201371 -27.250813 2.243543 -5.255042 -3.180161 14.282905 -0.826598 6.95251 -0.0 -12.690614 -3e-06 15.066392 -17.287609 2.707143 1.665666 -1.955923 -2.878301 4.727805 -4.17059 4.993927 11.020534 0.0 2e-06 12.109059 -3.735719 -2.866783 -0.0 0.0 -0.0 1.291986 -1.928552 -1.498089 14.800142 0.567467 3.865615 14.242582 -1.34174 -6.660657 19.631985 0.143922 -0.64824 51.335785 -0.60603 -5.471978 0.353028 -1.511152 -0.031941 20.222805 3.684308 2.31664 18.787291 0.0 5e-06 10.751637 -0.479872 1.397909 -0.0 2e-06 -0.0 3.273808 0.305948 -0.580111 21.486834 11.830379 2.266147 8.162933 -0.0 -0.0 18.399101 -3.798991 -4.940578 2e-06 -1e-06 -0.0 -9.558919 37.010979 -75.613815 -5.549182 -4.71622 81.082298 10.198607 25.733883 0.480479 1.912736 -2.057945 -2.742517 0.0 -0.0 3e-06 80.723526 74.591537 90.550232 -97.448914 -84.624069 103.75666 25.661114 -12.251692 -2.192304 -1.571241 0.382617 -5.757707 1e-06 -1e-06 -1e-06 
0.0 0.0 0.0 0.0 -0.0 0.0 156.890579 16.202133 78.139183 35.118473 17.613485 100.890907 -8.468534 -1.090612 -3.451399 -3.563718 -2.989008 -4.865441 -13.551874 -4.501617 14.256113 13.831972 3.318413 -28.260918 -6.201586 -10.998186 -2.570968 0.047291 -15.805864 0.032005 7.7e-05 -2.2e-05 6e-06 0.063217 -0.013418 -0.303709 0.981738 -3.755256 -11.121937 -0.846916 3.725362 -10.914039 3.531884 -19.057144 12.926913 -49.133678 -59.459641 -10.042953 179.644424 -51.153362 179.056656 11.645733 -9.707366 42.511612 -5.882108 9.861293 0.702588 -10.93688 -0.36058 7.156211 2e-06 8.774833 -1e-06 -16.054867 18.457911 6.069647 -1.844034 2.498506 -2.507279 -10.163606 4.678946 4.621111 -20.97604 -1e-05 2e-06 -21.226301 2.451693 -3.594 0.0 -6e-06 -1e-06 -1.362683 2.2408 -0.746325 -21.33493 0.584903 3.008326 -13.821225 -7e-06 2e-06 -23.887188 -0.249085 -0.83948 -59.424736 3.030885 -1.290968 -0.294024 1.679688 0.833255 -14.218219 0.09321 1.300581 -34.212074 -0.287574 0.967176 -20.03323 0.964532 1.21285 1e-06 0.0 -0.0 -3.440392 0.788234 0.501655 -15.928201 -3.167317 2.999708 -6.338831 -3e-06 0.0 -18.123459 3.64818 -4.905675 -4e-06 0.0 0.0 -2.55005 0.97014 13.06074 76.884155 32.852329 -8.574606 177.822144 30.105108 178.612854 -18.270863 2.328921 -24.213427 2.243541 -5.255038 -3.180158 14.282889 -0.826594 6.952501 -3e-06 -12.690606 -0.0 15.174883 -17.586168 2.87938 1.665667 -1.955922 -2.878299 4.727797 -4.170588 4.993923 11.020523 4e-06 -2e-06 12.109052 -3.735716 -2.866786 -0.0 -0.0 1e-06 1.291986 -1.928549 -1.498089 14.800125 0.56747 3.865606 14.242571 -1.341737 -6.660657 19.631968 0.143926 -0.648245 50.903305 -0.612056 -5.872696 0.353028 -1.511151 -0.031939 20.222788 3.684311 2.316628 18.78727 6e-06 -3e-06 10.751626 -0.479869 1.397904 -0.0 0.0 1e-06 3.273806 0.305948 -0.580109 21.486811 11.830378 2.266131 8.162928 0.0 -1e-06 18.399082 -3.798983 -4.940577 3e-06 -0.0 0.0 -11.048745 39.408836 -79.002754 -6.054914 -3.943051 82.242912 8.216516 24.667688 -0.951595 1.793223 -2.010628 -3.15272 0.0 -0.0 3e-06 82.89959 76.151764 93.425644 -86.173386 -84.771751 92.001015 23.587872 -13.853541 3.670485 -1.544183 0.374693 -3.650502 -1e-06 0.0 -1e-06 
